<?xml version="1.0" encoding="utf-8"?>
<!-- Generator: Adobe Illustrator 15.0.0, SVG Export Plug-In . SVG Version: 6.00 Build 0)  -->
<!DOCTYPE svg PUBLIC "-//W3C//DTD SVG 1.1//EN" "http://www.w3.org/Graphics/SVG/1.1/DTD/svg11.dtd">
<svg version="1.1" id="Layer_1" xmlns="http://www.w3.org/2000/svg" xmlns:xlink="http://www.w3.org/1999/xlink" x="0px" y="0px"
	 width="26px" height="26px" viewBox="0 0 26 26" enable-background="new 0 0 26 26" xml:space="preserve">
<g>
	<path d="M8.784,6.899h7.533c0.302,0,0.548-0.245,0.548-0.548c0-0.303-0.246-0.548-0.548-0.548H8.784
		c-0.302,0-0.547,0.245-0.547,0.548C8.236,6.654,8.481,6.899,8.784,6.899z"/>
	<path d="M8.784,9.707h7.533c0.302,0,0.548-0.245,0.548-0.548c0-0.302-0.246-0.547-0.548-0.547H8.784
		c-0.302,0-0.547,0.245-0.547,0.547C8.236,9.461,8.481,9.707,8.784,9.707z"/>
	<path d="M18.889,2.043H7.113c-0.887,0-1.609,0.722-1.609,1.609v15.561c0,0.888,0.722,1.609,1.609,1.609h4.234l0.348-1.11
		c-0.021-0.02-0.042-0.039-0.062-0.059h-4.52c-0.243,0-0.44-0.198-0.44-0.44V3.652c0-0.243,0.197-0.44,0.44-0.44h11.775
		c0.242,0,0.44,0.197,0.44,0.44v15.561c0,0.242-0.198,0.44-0.44,0.44h-0.546l0.439,1.169h0.106c0.887,0,1.608-0.722,1.608-1.609
		V3.652C20.497,2.765,19.775,2.043,18.889,2.043z"/>
	<path d="M17.696,19.254c0.368-0.37,0.513-0.876,0.439-1.354c0.079-0.186,0.141-0.379,0.186-0.579
		c0.287-0.286,0.465-0.681,0.465-1.119c0-0.59-0.324-1.097-0.801-1.368c-0.027-0.051-0.059-0.098-0.09-0.145
		c0.002-0.405-0.152-0.812-0.462-1.12c-0.29-0.291-0.666-0.439-1.047-0.455c-0.277-0.462-0.775-0.774-1.353-0.774
		c-0.579,0-1.081,0.314-1.355,0.779c-0.552-0.188-1.188-0.067-1.628,0.374c-0.422,0.422-0.549,1.021-0.393,1.557
		c-0.014,0.029-0.031,0.059-0.044,0.089c-0.395,0.288-0.652,0.75-0.652,1.276c0,0.471,0.209,0.889,0.537,1.178
		c0.033,0.105,0.069,0.207,0.112,0.308c-0.072,0.479,0.071,0.984,0.441,1.354c0.1,0.1,0.211,0.182,0.327,0.248l-1.077,3.44
		l1.54-1.045l0.66,1.93l1.087-3.466c0.118,0.028,0.24,0.045,0.365,0.045c0.199,0,0.387-0.039,0.561-0.107l1.742,4.58l0.602-1.983
		l1.487,0.862l-1.684-4.474C17.673,19.273,17.686,19.264,17.696,19.254z M14.872,19.298c-1.59,0-2.877-1.29-2.877-2.878
		c0-1.591,1.288-2.881,2.877-2.881c1.592,0,2.879,1.29,2.879,2.881C17.751,18.008,16.464,19.298,14.872,19.298z"/>
</g>
</svg>
