<?xml version="1.0" encoding="utf-8"?>
<!-- Generator: Adobe Illustrator 16.0.4, SVG Export Plug-In . SVG Version: 6.00 Build 0)  -->
<!DOCTYPE svg PUBLIC "-//W3C//DTD SVG 1.1//EN" "http://www.w3.org/Graphics/SVG/1.1/DTD/svg11.dtd">
<svg version="1.1" id="Capa_1" xmlns="http://www.w3.org/2000/svg" xmlns:xlink="http://www.w3.org/1999/xlink" x="0px" y="0px"
	 width="64px" height="64px" viewBox="0 0 64 64" enable-background="new 0 0 64 64" xml:space="preserve">
<g>
	<path d="M29.367,15.506c-14.835,0-10.772,17.58-10.264,19.612s5.081,17.478,10.67,17.478c5.588,0,9.043-13.312,10.059-17.273
		C46.539,14.084,29.367,15.506,29.367,15.506z M24.313,29.071c-0.868,0-1.574-0.707-1.574-1.574c0-0.868,0.706-1.574,1.574-1.574
		s1.575,0.706,1.575,1.574C25.889,28.364,25.182,29.071,24.313,29.071z M28.924,49.589c-0.073,0.063-0.166,0.099-0.259,0.099
		c-0.066,0-0.134-0.019-0.193-0.053c-0.978-0.554-2.065-1.51-2.136-2.3c-0.026-0.289,0.08-0.55,0.3-0.731
		c0.118-0.1,0.26-0.15,0.409-0.15c0.742,0,1.489,1.465,1.985,2.693C29.092,49.301,29.05,49.479,28.924,49.589z M31.133,49.572
		c-0.061,0.033-0.127,0.051-0.192,0.051c-0.095,0-0.186-0.033-0.26-0.1c-0.126-0.108-0.168-0.287-0.105-0.441
		c0.496-1.229,1.243-2.693,1.984-2.693c0.149,0,0.291,0.051,0.41,0.15c0.219,0.184,0.326,0.443,0.299,0.734
		C33.198,48.064,32.113,49.018,31.133,49.572z M35.159,29.104c-0.868,0-1.574-0.707-1.574-1.574c0-0.868,0.706-1.574,1.574-1.574
		s1.573,0.706,1.573,1.574C36.732,28.398,36.027,29.104,35.159,29.104z"/>
	<path d="M34.479,52.255c-1.361,1.388-2.92,2.228-4.706,2.228c-1.75,0-3.419-0.889-5.035-2.692c-0.737-0.823-1.202-0.676-1.062,0.42
		c0.299,2.333,0.858,3.521,1.553,4.392c0.689,0.863,1.14,0.797,1.135-0.021c-0.006-0.818,0.48-0.521,0.852,0.518
		c0.319,0.892,0.718,1.525,1.181,2.111c0.684,0.867,2.007,0.936,2.622,0.018c0.498-0.742,0.872-1.539,1.142-2.231
		c0.399-1.03,0.694-1.302,0.737-0.542c0.041,0.759,0.738,0.826,1.365-0.081c0.783-1.132,1.168-2.412,1.35-3.658
		C35.771,51.62,35.253,51.467,34.479,52.255z"/>
	<path d="M16.931,17.845c-3.728-0.541-5.556,3.863-5.745,5.259c-0.324,1.4-0.762,2.306-1.637,3.39
		c-0.693,0.859-0.459,1.742,0.646,1.706c1.872-0.061,3.529-0.852,4.746-1.695c0.908-0.629,1.621-2.175,1.865-3.253
		c0.234-1.038,0.564-2.059,1.017-3.028C18.292,19.224,18.024,18.003,16.931,17.845z"/>
	<path d="M48.223,23.104c-0.188-1.364-1.938-5.599-5.496-5.289c-1.1,0.096-1.888,0.587-1.858,0.623
		c0.017,0.021,0.032,0.042,0.05,0.065c1.045,1.426,1.741,3.107,2.09,5.033c0.196,1.087,0.883,2.613,1.814,3.207
		c1.175,0.748,2.693,1.402,4.39,1.457c1.104,0.036,1.339-0.847,0.646-1.706C48.982,25.41,48.545,24.505,48.223,23.104z"/>
	<path d="M17.893,13.229l1.126,2.096c0.524,0.974,1.519,1.149,2.351,0.551c0.833-0.598,1.174-1.736,0.646-2.706
		c-0.9-1.656-2.009-3.642-2.326-3.988C19.132,8.572,7.724,2.297,7.115,3.009c-0.458,0.535,5.333,5.05,8.233,7.255
		C16.227,10.933,17.37,12.256,17.893,13.229z"/>
	<path d="M51.822,3.009c-0.609-0.712-12.016,5.563-12.574,6.173c-0.307,0.333-1.352,2.199-2.232,3.817
		c-0.529,0.97-0.18,2.064,0.691,2.588s1.918,0.283,2.441-0.69l0.896-1.668c0.522-0.973,1.666-2.296,2.545-2.965
		C46.489,8.058,52.279,3.543,51.822,3.009z"/>
</g>
</svg>
